<svg xmlns="http://www.w3.org/2000/svg" width="159.652" height="183.404" viewBox="0 0 159.652 183.404">
  <g id="Group_8" data-name="Group 8" transform="translate(0 0)">
    <path id="Path_1" data-name="Path 1" d="M-6023.085-654a55.081,55.081,0,0,1-20.664-25.81s-.942,7.452,0,12.9a47.632,47.632,0,0,1-9.336-6.536s6.053,19.27,23.926,27.064A19.634,19.634,0,0,0-6023.085-654Z" transform="translate(6082.064 739.138)" fill="#df9d13"/>
    <path id="Path_2" data-name="Path 2" d="M-5953.408-847.284l-3.883-8.8h-45.248l-3.883,8.8-13.031,5.265,3.106,43.065s1.208,15.189,11.651,21.749a195.969,195.969,0,0,0,23.068,11.84,4.264,4.264,0,0,0,3.425,0,195.928,195.928,0,0,0,23.069-11.84c10.442-6.559,11.65-21.749,11.65-21.749l3.107-43.065Z" transform="translate(6059.752 856.087)" fill="#df9d13"/>
    <path id="Path_3" data-name="Path 3" d="M-5949.345-837.931l-3.577-8.108-5.1-.325-36.578.325-3.577,8.108-12,4.849,2.861,39.663s1.113,13.99,10.73,20.031a180.433,180.433,0,0,0,21.247,10.9,3.926,3.926,0,0,0,3.153,0,180.433,180.433,0,0,0,21.247-10.9c9.618-6.041,10.73-20.031,10.73-20.031l2.862-39.663Z" transform="translate(6053.596 849.636)" fill="#a11b22"/>
    <g id="Group_1" data-name="Group 1" transform="translate(64.451 5.996)">
      <path id="Path_4" data-name="Path 4" d="M-5915.787-794.546c-1.589-2.317-2.356-2.7-2.356-2.7a3.594,3.594,0,0,0-3.254-4.326c-3.983-.557-6.681.728-10.322-2.57,0,0,3.769-1.242,2.227-11.478s-.3-11.734-.3-11.734a15.909,15.909,0,0,0-3.812,13.062s.686-5.011,1.842-5.7c0,0,2.569,11.306-1.285,12.377,0,0-1.157.086-1.285-2.227s.386-4.625-.813-8.051-.193-8.88,2.4-11.52a10.455,10.455,0,0,0-4.24,6.852s-4.545-8.694.171-15.717c0,0-10.407,10.921-2.483,23.3a29.6,29.6,0,0,0-1.157-9.079s7.109,13.276,4.326,20.6c0,0-.558.428-.771-3.769s-3.34-7.495-4.583-9.293-4.176-6.528-2.741-12.163c0,0-4.711,13.148.6,18.972,0,0-3.837-2.108-3.812-5.91,0,0-1.584,4.54,3.126,8.822s5.524,12.677,4.5,17.216l1.5-1.713a5.984,5.984,0,0,0,.729,4.454s-.429-2.141.856-3.255c0,0-.642,4.24.643,6.167,0,0-.515-3.426,1.713-5.011,0,0-2.441,5.439.6,8.994a8.35,8.35,0,0,1,2.056-8.737s-3.3,6.981,1.371,11.948a11.631,11.631,0,0,1,1.927-10.621,9.859,9.859,0,0,0,1.028,9.508s-2.1-7.109,2.056-11.563,6.767-3.812,7.708-3a3.252,3.252,0,0,1,.771,2.484S-5914.612-792.833-5915.787-794.546Zm-5.183-.6c-5.225.685-9.336,7.537-9.336,7.537a12.034,12.034,0,0,0,.857-5.1,14.732,14.732,0,0,1-3.512,3.64c.252-2.285,1.028-2.87,1.028-2.87-2.208-.285-3.383,2.227-3.383,2.227a5.36,5.36,0,0,1,2.145-4.112l-3.517,1.884c5.572-5.767,2.913-11.906,2.913-11.906s3.316,4.711,8.694,4.368c4.845-.309,4.84,2.612,4.84,2.612a4.19,4.19,0,0,1,2.569,2.4C-5918.742-795.445-5920.969-795.145-5920.969-795.145Z" transform="translate(5947.692 838.272)" fill="#df9d13"/>
    </g>
    <g id="Group_2" data-name="Group 2" transform="translate(81.199 30.449)">
      <path id="Path_5" data-name="Path 5" d="M-5869.615-754.751c-2.39.774-3.5,3.17-3.955,4.6.067-1.41.109-2.727.133-3.9a6.149,6.149,0,0,0,4.139-6.007,7.1,7.1,0,0,0-4.12,4.815c.023-1.9,0-3.27-.009-3.812a5.62,5.62,0,0,0-1.549-6.559c-1.342,3.671.263,5.931,1.013,6.73.02.661.049,2.061.026,3.961a7.45,7.45,0,0,0-3.863-5.238,6.551,6.551,0,0,0,3.848,6.129c-.025,1.243-.074,2.657-.161,4.183a7.3,7.3,0,0,0-3.857-5.312,6.217,6.217,0,0,0,3.811,6.069c-.091,1.437-.215,2.962-.385,4.535a7.153,7.153,0,0,0-3.838-5.665c.093,4.561,3.2,5.871,3.792,6.08-.156,1.384-.346,2.8-.579,4.22a7.363,7.363,0,0,0-3.439-5.381,6.321,6.321,0,0,0,3.261,6.408c-.228,1.271-.492,2.539-.8,3.784a7.832,7.832,0,0,0-2.794-5.788,6.87,6.87,0,0,0,2.533,6.811c-.081.3-.163.607-.249.906a17.437,17.437,0,0,1-1.054,2.757,7.14,7.14,0,0,0-2.039-5.989c-1.208,4.06.812,6.191,1.6,6.84a18.058,18.058,0,0,1-2.738,3.727,7.032,7.032,0,0,0-.407-6.373c-2.2,2.849-.908,6.066-.366,7.141a23.079,23.079,0,0,1-3.6,2.762c1.94-2.541,1.189-6.332,1.189-6.332-2.907,2.308-2.47,5.852-2.246,6.962a30.789,30.789,0,0,1-3.388,1.637c2.732-2.3,2.074-6.3,2.074-6.3-3.407,1.791-3.29,5.671-3.188,6.741-1.222.455-2.374.809-3.387,1.082-1.852.5-3.236.728-3.728.823,0,0,1.07.206,1.194,1.976,0,0,.864-1.688,3.992-2.634.547-.165,1.319-.395,2.231-.716,4.183,2.246,6.71.284,6.71.284a7.769,7.769,0,0,0-4.5-1.155c.768-.337,1.58-.732,2.41-1.2,5.678,1.585,7.417-1.149,7.417-1.149a6.835,6.835,0,0,0-5.256-.212,21.776,21.776,0,0,0,2.48-2.04c5.238.323,7-2.981,7-2.981a8,8,0,0,0-5.406,1.269,19.312,19.312,0,0,0,2-2.929,6.067,6.067,0,0,0,6.111-4.217,7.147,7.147,0,0,0-5.38,2.758,20.36,20.36,0,0,0,.952-2.532c.063-.212.125-.428.186-.645,5.006-1.17,5.23-5.014,5.23-5.014a7.367,7.367,0,0,0-4.9,3.73c.285-1.171.53-2.4.742-3.654a5.912,5.912,0,0,0,4.56-5.6,7.762,7.762,0,0,0-4.436,4.831c.239-1.529.432-3.089.585-4.629,4.436-1.175,4.339-5.794,4.339-5.794a7.935,7.935,0,0,0-4.253,4.89c.126-1.384.222-2.742.295-4.039C-5869.3-750.131-5869.615-754.751-5869.615-754.751Z" transform="translate(5897.933 765.617)" fill="#df9d13"/>
    </g>
    <g id="Group_3" data-name="Group 3" transform="translate(51.038 30.089)">
      <path id="Path_6" data-name="Path 6" d="M-5962.631-719.6c-1.013-.273-2.165-.626-3.387-1.082.1-1.07.219-4.95-3.187-6.741,0,0-.658,4,2.074,6.3a30.783,30.783,0,0,1-3.388-1.638c.224-1.109.662-4.654-2.246-6.961,0,0-.75,3.79,1.189,6.332a23.011,23.011,0,0,1-3.6-2.762c.542-1.075,1.833-4.292-.366-7.141a7.034,7.034,0,0,0-.408,6.373,18.139,18.139,0,0,1-2.738-3.727c.788-.649,2.807-2.78,1.6-6.84a7.142,7.142,0,0,0-2.039,5.988,17.437,17.437,0,0,1-1.054-2.757c-.086-.3-.167-.6-.248-.906a6.87,6.87,0,0,0,2.532-6.811,7.832,7.832,0,0,0-2.793,5.789c-.3-1.246-.569-2.513-.8-3.785a6.321,6.321,0,0,0,3.262-6.408,7.361,7.361,0,0,0-3.439,5.381c-.233-1.42-.424-2.836-.579-4.22.592-.209,3.7-1.519,3.792-6.08a7.153,7.153,0,0,0-3.838,5.664c-.17-1.573-.295-3.1-.386-4.535a6.217,6.217,0,0,0,3.812-6.069,7.3,7.3,0,0,0-3.858,5.312c-.086-1.527-.135-2.941-.16-4.183a6.552,6.552,0,0,0,3.849-6.129A7.45,7.45,0,0,0-5982.9-756c-.023-1.9.006-3.3.025-3.961.75-.8,2.355-3.059,1.013-6.73a5.621,5.621,0,0,0-1.549,6.559c-.012.542-.033,1.914-.01,3.812a7.1,7.1,0,0,0-4.12-4.815,6.15,6.15,0,0,0,4.139,6.007c.024,1.172.065,2.49.133,3.9-.458-1.428-1.565-3.824-3.955-4.6,0,0-.315,4.62,4.009,5.647.072,1.3.169,2.655.294,4.039a7.935,7.935,0,0,0-4.252-4.89s-.1,4.619,4.337,5.794c.154,1.541.347,3.1.586,4.63a7.763,7.763,0,0,0-4.436-4.831,5.912,5.912,0,0,0,4.56,5.6c.212,1.256.458,2.484.741,3.655a7.367,7.367,0,0,0-4.895-3.73s.224,3.844,5.23,5.015c.061.217.123.433.187.645a20.355,20.355,0,0,0,.951,2.532,7.149,7.149,0,0,0-5.379-2.759,6.067,6.067,0,0,0,6.111,4.218,19.29,19.29,0,0,0,2,2.929,8,8,0,0,0-5.4-1.269s1.758,3.3,7,2.981a21.783,21.783,0,0,0,2.48,2.04,6.836,6.836,0,0,0-5.256.212s1.74,2.733,7.417,1.149c.83.465,1.641.861,2.409,1.2a7.768,7.768,0,0,0-4.5,1.155s2.528,1.962,6.711-.284c.913.321,1.685.55,2.231.716,3.127.947,3.992,2.634,3.992,2.634.123-1.77,1.193-1.976,1.193-1.976C-5959.4-718.874-5960.78-719.1-5962.631-719.6Z" transform="translate(5987.546 766.689)" fill="#df9d13"/>
    </g>
    <path id="Path_7" data-name="Path 7" d="M-5840.234-654a55.081,55.081,0,0,0,20.664-25.81s.942,7.452,0,12.9a47.638,47.638,0,0,0,9.337-6.536s-6.054,19.27-23.927,27.064A19.634,19.634,0,0,1-5840.234-654Z" transform="translate(5940.853 739.138)" fill="#df9d13"/>
    <path id="Path_8" data-name="Path 8" d="M-5816.928-660.884a58.115,58.115,0,0,1-17.646,19.869s2.9,4.808,4.568,5.512c0,0,12.563-5.083,20.357-21.015,0,0-4.5,3.6-8.072,4.711C-5817.72-651.807-5816.585-654.286-5816.928-660.884Z" transform="translate(5937.097 726.583)" fill="#0a2c6a"/>
    <g id="Group_4" data-name="Group 4" transform="translate(100.618 82.314)">
      <path id="Path_9" data-name="Path 9" d="M-5840.234-608.693l11.071-2.827s-.222,3.043-8.591,7.3A15.415,15.415,0,0,1-5840.234-608.693Z" transform="translate(5840.234 611.52)" fill="#062e6b"/>
      <path id="Path_10" data-name="Path 10" d="M-5835.816-604.713l7.375-1.845s-1.533,1.943-6.034,4.115A7.727,7.727,0,0,1-5835.816-604.713Z" transform="translate(5837.303 608.228)" fill="#062e6b"/>
    </g>
    <path id="Path_11" data-name="Path 11" d="M-6036.389-660.884a58.109,58.109,0,0,0,17.644,19.869s-2.9,4.808-4.567,5.512c0,0-12.562-5.083-20.357-21.015,0,0,4.5,3.6,8.072,4.711C-6035.6-651.807-6036.731-654.286-6036.389-660.884Z" transform="translate(6075.818 726.583)" fill="#062e6b"/>
    <g id="Group_5" data-name="Group 5" transform="translate(47.98 82.314)">
      <path id="Path_12" data-name="Path 12" d="M-5985.559-608.693l-11.071-2.827s.221,3.043,8.59,7.3A15.415,15.415,0,0,0-5985.559-608.693Z" transform="translate(5996.63 611.52)" fill="#062e6b"/>
      <path id="Path_13" data-name="Path 13" d="M-5982.692-604.713l-7.375-1.845s1.533,1.943,6.035,4.115A7.73,7.73,0,0,0-5982.692-604.713Z" transform="translate(5992.276 608.228)" fill="#062e6b"/>
    </g>
    <path id="Path_14" data-name="Path 14" d="M-6017.807-600.385l7.11-11.135s30.407,26.3,63.727,0l7.109,10.878S-5975.665-570.834-6017.807-600.385Z" transform="translate(6058.66 693.834)" fill="#de9e11"/>
    <path id="Path_15" data-name="Path 15" d="M-6012.378-596.5s34.233,26.639,74.319,0l-5.482-8.908s-29.294,24.583-63.3,0Z" transform="translate(6055.058 689.781)" fill="#062e6b"/>
    <g id="Group_6" data-name="Group 6" transform="translate(0 117.314)">
      <path id="Path_16" data-name="Path 16" d="M-5810.63-432.823c-.855-.891-1.969-.94-2.982-1.268l-.028-.485c.246-.237,4.256-.3,6.558-.118l6.217,14.886c2.085-5.061,4.114-9.985,6.146-14.916h6.067c.027.189.053.376.094.669-.456.1-.881.207-1.312.283a1.315,1.315,0,0,0-1.228,1.169,12.9,12.9,0,0,0-.2,1.7c-.017,4.2-.009,8.406-.009,12.61a6.463,6.463,0,0,0,.007.741,1.824,1.824,0,0,0,1.9,1.85c.2.022.411.027.694.045.046.257.091.52.131.751-.274.244-6.275.313-9.041.147-.148-.791-.124-.878.6-.912a2.237,2.237,0,0,0,1.957-.967v-14.507a48.03,48.03,0,0,0-2.348,5.307c-.795,1.831-1.533,3.688-2.271,5.543s-1.44,3.707-2.155,5.556h-.932c-2.316-5.375-4.439-10.857-6.905-16.23v.97c0,3.256-.01,6.511.01,9.767a13.6,13.6,0,0,0,.2,1.693,3.178,3.178,0,0,0,2.224,2.685l.742.281c.011.22.024.457.036.669-.052.054-.08.11-.108.11-2.306,0-4.611,0-7,0l-.09-.8a3.4,3.4,0,0,0,2.079-1,3.117,3.117,0,0,0,.923-2.078c.016-.288.018-.577.018-.865q0-6.181,0-12.363Z" transform="translate(5923.216 459.278)"/>
      <path id="Path_17" data-name="Path 17" d="M-5958.729-505.483v-.925h9.352c.012.267.023.5.038.812a5.652,5.652,0,0,1-.842.089c-1.2-.052-1.973.517-2.1,2.029-.048.573-.014,1.153-.015,1.73,0,1.435,0,2.871,0,4.366h10.131c0-2.094.049-4.147-.017-6.2-.042-1.273-.691-1.829-1.95-1.907-.283-.018-.568,0-.926,0v-.919h9.325c.013.269.024.5.041.846l-1.218.071a1.448,1.448,0,0,0-1.546,1.273,4.562,4.562,0,0,0-.19,1.2c-.014,4.45-.009,8.9-.01,13.35,0,.124,0,.248.005.371.09,1.372.589,1.908,1.943,2.062a8.664,8.664,0,0,0,.923,0l.1.58c-.274.268-7.529.321-9.4.093v-.6c.583-.1,1.138-.216,1.7-.3a1.076,1.076,0,0,0,.988-.934,5.986,5.986,0,0,0,.22-1.072c.021-2.177.011-4.353.011-6.59H-5952.3c0,1.183,0,2.328,0,3.473,0,1.03-.017,2.061.014,3.09a3.86,3.86,0,0,0,.223,1.065,1.359,1.359,0,0,0,1.273.981,13.9,13.9,0,0,1,1.427.285v.542c-.212.2-5.363.276-9.324.129l-.082-.632c.519-.105.959-.172,1.386-.287.343-.093.787-.153.977-.393a4.443,4.443,0,0,0,.581-1.329,1.962,1.962,0,0,0,.02-.615q0-6.737,0-13.474c0-.165.008-.331,0-.494a1.8,1.8,0,0,0-1.719-1.768C-5957.89-505.515-5958.26-505.483-5958.729-505.483Z" transform="translate(6019.491 506.785)"/>
      <path id="Path_18" data-name="Path 18" d="M-5943.9-414.7c.232-.4.295-.675.454-.753a3.537,3.537,0,0,1,.946-.232,1.583,1.583,0,0,0,1.537-1.733c.015-.247.008-.494.008-.741v-13.352c0-.206.011-.413,0-.618a1.5,1.5,0,0,0-1.267-1.585c-.468-.126-.949-.207-1.453-.315v-.709h1c3.678,0,7.356-.073,11.032.018,4.676.116,8.45,2.682,9.681,7.538a10.338,10.338,0,0,1,.171,4,9.061,9.061,0,0,1-2.72,5.483,10.894,10.894,0,0,1-5.893,2.78,28.254,28.254,0,0,1-4.552.208c-2.479.021-4.958.006-7.438.006Zm6.653-10.032h-.007c0,2.387.03,4.774-.013,7.16a1.757,1.757,0,0,0,1.625,1.921,11.408,11.408,0,0,0,2.789,0,7.847,7.847,0,0,0,6.757-5.9,14.259,14.259,0,0,0-.016-6.079,7.839,7.839,0,0,0-3.437-5.027,9.246,9.246,0,0,0-5.885-1.275c-1.256.086-1.8.763-1.808,2.039C-5937.257-429.5-5937.243-427.117-5937.243-424.731Z" transform="translate(6009.625 459.253)"/>
      <path id="Path_19" data-name="Path 19" d="M-5783.341-495.623v2.057c0,1.318-.016,2.637,0,3.955.023,1.463.26,1.731,1.713,2.055.437.1.874.191,1.4.3.02.133.046.319.068.467-.255.255-7.348.321-9.853.129-.012-.175-.025-.362-.042-.6.672-.113,1.3-.246,1.944-.321a1.107,1.107,0,0,0,1.032-.893,5.463,5.463,0,0,0,.231-1.315q.026-6.674,0-13.348a4.221,4.221,0,0,0-.157-1.083,1.617,1.617,0,0,0-1.732-1.4c-.4-.024-.81,0-1.27,0v-.886a5.154,5.154,0,0,1,.668-.083c3.387-.006,6.776-.04,10.163.012a8.931,8.931,0,0,1,4.491,1.039,5.681,5.681,0,0,1,2.024,1.942,4.563,4.563,0,0,1-.659,5.64,6.758,6.758,0,0,1-2.668,1.712l-1.2.49c2,2.294,3.887,4.485,5.806,6.651a4.966,4.966,0,0,0,2.025,1.576c.366.127.468.432.315.879a14.613,14.613,0,0,1-3.392.011,3.53,3.53,0,0,1-2.12-1.169c-.895-.961-1.769-1.943-2.605-2.955-1.044-1.263-2.018-2.585-3.066-3.845C-5781.137-495.713-5781.542-495.818-5783.341-495.623Zm.005-.877c.88,0,1.62,0,2.36,0a7.073,7.073,0,0,0,3.282-.861,2.485,2.485,0,0,0,.815-.7,5,5,0,0,0,.532-5.208,3.51,3.51,0,0,0-3.392-2.361c-.66-.017-1.32,0-1.98,0a1.436,1.436,0,0,0-1.381,1.028,3.014,3.014,0,0,0-.228,1.068C-5783.346-501.231-5783.335-498.932-5783.335-496.5Z" transform="translate(5907.561 506.917)"/>
      <path id="Path_20" data-name="Path 20" d="M-5873.278-434.055v-.544c.227-.216,14.291-.279,16.761-.1.561,1.393,1.164,2.8,1.622,4.234-.711.419-1.078.053-1.465-.358a9.761,9.761,0,0,0-4.812-2.815,7.082,7.082,0,0,0-3.874-.159c-.969.294-1.509.77-1.529,1.773-.045,2.136-.014,4.274-.014,6.481a4.9,4.9,0,0,0,.881.139c.9-.029,1.8-.052,2.7-.153a3.217,3.217,0,0,0,3.077-2.975,1.175,1.175,0,0,1,.111-.255h.837v7.279l-.795.144c-.15-.544-.266-1.051-.43-1.543a2.393,2.393,0,0,0-2.225-1.672c-1.347-.1-2.707-.025-4.165-.025,0,1.256,0,2.441,0,3.626,0,.948-.021,1.9.016,2.842a5.668,5.668,0,0,0,.241,1.44,1.358,1.358,0,0,0,1.052.946,8.752,8.752,0,0,0,8.282-2.26c.621-.6,1.245-1.2,1.939-1.875h1.023l-1.778,5.114h-17.411c-.024-.188-.05-.375-.085-.634.461-.106.886-.228,1.319-.3,1.455-.241,1.659-.656,1.881-2a3.827,3.827,0,0,0,0-.617q0-6.489-.007-12.978c0-.444-.1-.887-.146-1.331-.078-.744-.579-1.031-1.238-1.144C-5872.066-433.86-5872.629-433.949-5873.278-434.055Z" transform="translate(5962.803 459.28)"/>
      <path id="Path_21" data-name="Path 21" d="M-6126.814-507.477l.618,5.89-.958.1c-.568-.874-1.07-1.767-1.689-2.568a5.97,5.97,0,0,0-3.392-2.517c-2.163-.457-3.969-.074-4.973,2.072a2.815,2.815,0,0,0,1.076,3.734,9.623,9.623,0,0,0,2.883.965c1.4.289,2.825.449,4.2.809a6.046,6.046,0,0,1,4.424,4.362,6.516,6.516,0,0,1-2.636,6.709,6.793,6.793,0,0,1-6.535.6,14.5,14.5,0,0,0-2.359-.605,1.758,1.758,0,0,0-1.605.459,1.1,1.1,0,0,1-1.145.24v-7.027l.834-.119a6.461,6.461,0,0,1,.347.649,13.447,13.447,0,0,0,2.414,4.1,5.634,5.634,0,0,0,5.318,1.914,3.668,3.668,0,0,0,3.2-3.5,6.846,6.846,0,0,0-.164-1.7,3.6,3.6,0,0,0-2.731-2.4c-1.217-.326-2.469-.53-3.711-.759a8.278,8.278,0,0,1-3.73-1.429,5.161,5.161,0,0,1-2-5.095,5.579,5.579,0,0,1,1.778-3.425,4.841,4.841,0,0,1,3.544-1.435,15.651,15.651,0,0,1,3.047.311,5.1,5.1,0,0,0,2.775-.09C-6127.642-507.327-6127.289-507.376-6126.814-507.477Z" transform="translate(6139.188 507.494)"/>
      <path id="Path_22" data-name="Path 22" d="M-5717.6-504.115c-.372-.944-1.275-1.03-2.062-1.429.127-.234.187-.534.338-.59,1.145-.429,2.3-.845,3.47-1.192.612-.182.966.071,1.23.732.588,1.475,1.163,2.954,1.738,4.434,1.519,3.9,3.026,7.814,4.554,11.715a3.472,3.472,0,0,0,2.464,2.494,1.7,1.7,0,0,1,.424.235l-.043.557h-8.336c-.027-.159-.053-.31-.1-.584l1.943-.653c.394-1.231-.18-2.18-.559-3.158s-.8-1.952-1.209-2.938h-6.745c-.368,1.088-.778,2.149-1.083,3.239-.468,1.672-.033,2.557,1.487,3.257.183.084.359.18.547.276-.011.181-.02.338-.032.558h-6.331c-.243-.37-.168-.736.268-.849,1.589-.412,2.3-1.665,2.84-3,1.377-3.394,2.669-6.822,4.006-10.232C-5718.4-502.223-5717.98-503.191-5717.6-504.115Zm.512,1.191c-1.173,2.522-1.953,4.935-2.993,7.337h5.931C-5715.133-497.99-5715.979-500.38-5717.084-502.924Z" transform="translate(5865.091 507.432)"/>
      <path id="Path_23" data-name="Path 23" d="M-6090.485-505.61v-.829c.109-.058.18-.126.249-.126,2.851-.01,5.7-.022,8.552-.014.737,0,.764.063.7.971-.354,0-.72-.026-1.08.005a1.494,1.494,0,0,0-1.551,1.415,6.1,6.1,0,0,0-.172,1.2c-.014,3.42-.022,6.84,0,10.259a5.786,5.786,0,0,0,.688,2.945,4.772,4.772,0,0,0,3.209,2.231,7.547,7.547,0,0,0,4.01-.089,4.932,4.932,0,0,0,3.689-4.177,20.916,20.916,0,0,0,.214-2.808c.033-1.73.063-3.463-.01-5.191a21.035,21.035,0,0,0-.443-3.384,2.657,2.657,0,0,0-2.77-2.432,2.254,2.254,0,0,1-.34-.08c-.027-.755,0-.839.487-.865.619-.033,1.24-.01,1.859-.011,1.405,0,2.81-.013,4.215.006.633.008.642.048.682.862a2.888,2.888,0,0,0-2.672,2.724,14.1,14.1,0,0,0-.207,1.694c-.022,2.8,0,5.6-.022,8.405a7.491,7.491,0,0,1-.17,1.45,6.043,6.043,0,0,1-4.323,4.734,11.767,11.767,0,0,1-7.118.1,7,7,0,0,1-2.394-1.2,5.308,5.308,0,0,1-2.121-4.368q-.006-5.191-.007-10.383c0-.329.007-.659,0-.989-.034-1.38-.647-2-2.05-2.056C-6089.706-505.621-6090.035-505.61-6090.485-505.61Z" transform="translate(6106.877 506.907)"/>
      <path id="Path_24" data-name="Path 24" d="M-6112.782-415.962v.85h-8.208c-.181-.708-.141-.8.429-.926a6.154,6.154,0,0,0,.95-.215c.616-.245.748-.5.657-1.145a2.18,2.18,0,0,0-.149-.462c-.619-1.591-1.239-3.182-1.869-4.8h-6.636c-.5,1.367-1.288,2.624-1.26,4.159.026,1.482.288,1.9,1.712,2.469.409.164.409.164.487.811a39.588,39.588,0,0,1-6.539.069.562.562,0,0,1,.333-.87,4.8,4.8,0,0,0,2.924-3.117c1.408-3.424,2.718-6.888,4.066-10.336.267-.682.478-1.392.81-2.042.438-.856.02-1.284-.584-1.59a8.215,8.215,0,0,0-1.14-.39c-.144-.3-.1-.64.205-.727,1.432-.4,2.76-1.259,4.466-1.071.414,1.068.83,2.16,1.259,3.246q2.067,5.224,4.144,10.445c.406,1.021.908,2.013,1.218,3.062A3.388,3.388,0,0,0-6112.782-415.962Zm-11.485-15a3.7,3.7,0,0,0-.336.513c-.831,2.074-1.659,4.149-2.468,6.232a2.2,2.2,0,0,0-.01.711c1.027,0,1.932.011,2.836,0a26.512,26.512,0,0,0,2.926-.062C-6122.322-426.086-6123.273-428.473-6124.267-430.965Z" transform="translate(6135.281 459.623)"/>
      <path id="Path_25" data-name="Path 25" d="M-5988.524-415.856v.823h-8.289c-.209-.539-.032-.848.486-.9a2.125,2.125,0,0,0,1.6-.67,3.278,3.278,0,0,0-.185-1.5c-.618-1.455-1.154-2.945-1.733-4.45h-6.685a29.6,29.6,0,0,0-1.2,3.272c-.325,1.316-.09,2.815,1.639,3.344.433.132.608.387.432.9h-6.333l-.049-.772a4.272,4.272,0,0,0,2.783-2.486c.649-1.452,1.3-2.9,1.894-4.379,1.1-2.76,2.112-5.554,3.245-8.3.541-1.312.212-1.877-1.078-2.289a6.562,6.562,0,0,1-.955-.562c.376-.2.549-.314.737-.387,2.177-.846,3.091-1.047,4.38-.93.363.871.766,1.8,1.137,2.735q1.86,4.707,3.7,9.423c.5,1.289,1,2.581,1.5,3.872.088.227.174.454.265.68A3.631,3.631,0,0,0-5988.524-415.856Zm-8.573-7.615a34.163,34.163,0,0,0-1.445-3.854c-.468-1.208-.965-2.4-1.473-3.665-.393.935-.756,1.75-1.078,2.581-.307.792-.533,1.617-.864,2.4a14.758,14.758,0,0,0-.943,2.54Z" transform="translate(6052.713 459.53)"/>
      <path id="Path_26" data-name="Path 26" d="M-6001.082-491.863l.636.339c-.012.115.014.254-.042.337a9.2,9.2,0,0,1-4.294,3.551,10.933,10.933,0,0,1-10.739-1.052,9.06,9.06,0,0,1-3.9-5.91,10.72,10.72,0,0,1,1.57-8.535,10.3,10.3,0,0,1,5.931-4.092,11.378,11.378,0,0,1,6.06.264,3.634,3.634,0,0,0,3.5-.358c.245-.191.693-.124,1.038-.174a32.074,32.074,0,0,1,.11,6.3.646.646,0,0,1-.208.109c-.163.016-.328.005-.5.005-.552-.855-1.093-1.71-1.653-2.554a6.72,6.72,0,0,0-3.865-2.862,5.431,5.431,0,0,0-5.245,1.231,7.368,7.368,0,0,0-2.3,3.979,12.729,12.729,0,0,0-.537,4.482c.258,2.375.737,4.675,2.41,6.527a6.441,6.441,0,0,0,6.382,2.163A8.066,8.066,0,0,0-6001.9-491C-6001.662-491.286-6001.391-491.54-6001.082-491.863Z" transform="translate(6059.902 507.527)"/>
      <path id="Path_27" data-name="Path 27" d="M-6049.758-435.7v6.057l-.846.063a16.3,16.3,0,0,0-2.362-3.46,5.91,5.91,0,0,0-8.177-.746,7.081,7.081,0,0,0-2.23,3.578,13.266,13.266,0,0,0-.718,4.685,11.457,11.457,0,0,0,1.952,6.335,6.589,6.589,0,0,0,5.8,2.886,7.752,7.752,0,0,0,4.863-2.073c.606-.547,1.145-1.167,1.8-1.843l.764.418a9.653,9.653,0,0,1-5.989,4.293,10.036,10.036,0,0,1-2.893.426,11.933,11.933,0,0,1-4.289-.862,9.755,9.755,0,0,1-4.741-4.112,11.889,11.889,0,0,1-1.332-3.895,10.287,10.287,0,0,1,.09-3.512,11.433,11.433,0,0,1,1-2.992,9.591,9.591,0,0,1,5.812-4.982,10.09,10.09,0,0,1,6.5-.008,6.513,6.513,0,0,0,1.171.337,2.953,2.953,0,0,0,2.363-.365C-6050.734-435.855-6050.726-435.845-6049.758-435.7Z" transform="translate(6092.14 460.06)"/>
      <path id="Path_28" data-name="Path 28" d="M-5735.376-433.869v-.676h9.259c.034.156.075.341.133.6-.627.12-1.22.216-1.8.348-.879.2-1.155.7-.767,1.531.413.887.894,1.745,1.387,2.591,1.049,1.8,2.123,3.584,3.193,5.372a3.735,3.735,0,0,0,.389.439c1.115-1.93,2.193-3.8,3.282-5.674a5.235,5.235,0,0,0,.788-2.406,1.754,1.754,0,0,0-1.268-1.975c-.152-.053-.3-.123-.49-.2v-.611h6.072a.534.534,0,0,1-.274.876,6.733,6.733,0,0,0-3.031,2.962c-1.479,2.4-2.854,4.859-4.28,7.29a3.079,3.079,0,0,0-.487,1.736c.05,1.274.067,2.555,0,3.827a1.952,1.952,0,0,0,2.075,2.307,1.87,1.87,0,0,1,.489.05.55.55,0,0,1,.4.768,72.374,72.374,0,0,1-9.373.06v-.574c.493-.108.968-.2,1.436-.317a1.8,1.8,0,0,0,1.471-1.732c.042-1.44.027-2.882,0-4.322a1.7,1.7,0,0,0-.279-.776q-2.836-4.8-5.693-9.589c-.063-.105-.16-.191-.219-.3A2.6,2.6,0,0,0-5735.376-433.869Z" transform="translate(5871.286 459.109)"/>
      <path id="Path_29" data-name="Path 29" d="M-5837.781-487.226v.5a76.525,76.525,0,0,1-9.834.112l-.079-.6a15.025,15.025,0,0,1,1.685-.32c.982-.076,1.313-.807,1.52-1.663a2.67,2.67,0,0,0,.015-.616v-15.781c-2.522-.1-4.677.435-6.218,2.532-.219.3-.5.548-.735.834a.942.942,0,0,1-1.2.259,41.222,41.222,0,0,1,1.031-4.6h17.931c.354,1.61.681,3.1,1.014,4.617a2.3,2.3,0,0,1-.368.087c-.2.013-.409,0-.678,0-1.624-2.635-3.817-4.252-7.207-3.653-.019.236-.064.55-.065.865q-.007,7.353,0,14.706a6.039,6.039,0,0,0,.011.741,1.766,1.766,0,0,0,1.524,1.649C-5838.922-487.445-5838.4-487.349-5837.781-487.226Z" transform="translate(5949.074 506.893)"/>
      <path id="Path_30" data-name="Path 30" d="M-5884.943-505.664v-.828a68.893,68.893,0,0,1,9.317-.085v.77a.991.991,0,0,1-.239.1,3.864,3.864,0,0,0-1.687.27,1.309,1.309,0,0,0-.767,1.161c-.04,1.268-.175,2.533-.186,3.8-.027,3.337-.009,6.673-.009,10.01a4.24,4.24,0,0,0,.011.863c.246,1.172.324,1.973,1.807,2.034a5.806,5.806,0,0,1,1.095.264v.615h-9.33v-.615c.6-.114,1.193-.213,1.783-.348a1.062,1.062,0,0,0,.884-.9,10,10,0,0,0,.226-1.568q.026-6.426,0-12.853a7.141,7.141,0,0,0-.239-1.69c-.176-.7-.794-.895-1.415-.99A9.044,9.044,0,0,0-5884.943-505.664Z" transform="translate(5970.514 506.968)"/>
    </g>
    <text id="INTERNATIONAL" transform="translate(1.949 180.404)" fill="#171314" font-size="13" font-family="SegoeUI, Segoe UI" letter-spacing="-0.03em"><tspan x="0" y="0">INTERNATIONAL</tspan></text>
    <text id="SCHOOL" transform="translate(102.349 180.404)" fill="#171314" font-size="13" font-family="SegoeUI, Segoe UI" letter-spacing="-0.03em"><tspan x="0" y="0">SCHOOL</tspan></text>
    <g id="Group_7" data-name="Group 7" transform="translate(47.49 89.379)">
      <path id="Path_31" data-name="Path 31" d="M-5995.325-584.156a1.047,1.047,0,0,1-.77.559,1.713,1.713,0,0,1-1.113-.266,2.585,2.585,0,0,1-.88-.778l.394-.7a4.721,4.721,0,0,0,.478.567,2.082,2.082,0,0,0,.416.321.738.738,0,0,0,.432.12.372.372,0,0,0,.29-.206.356.356,0,0,0,.047-.218.748.748,0,0,0-.083-.252,4.98,4.98,0,0,0-.322-.5,2.509,2.509,0,0,1-.321-.566,1.265,1.265,0,0,1-.074-.473,1.078,1.078,0,0,1,.149-.49,1.049,1.049,0,0,1,.734-.557,1.512,1.512,0,0,1,1.03.229,2.366,2.366,0,0,1,.488.362,4.141,4.141,0,0,1,.419.479l-.571.446a4.041,4.041,0,0,0-.376-.426,1.713,1.713,0,0,0-.337-.252.552.552,0,0,0-.382-.086.373.373,0,0,0-.259.195.37.37,0,0,0-.053.2.6.6,0,0,0,.066.225,4.919,4.919,0,0,0,.335.516,2.17,2.17,0,0,1,.41.859A1.06,1.06,0,0,1-5995.325-584.156Z" transform="translate(5998.088 588.591)" fill="#de9e11"/>
      <path id="Path_32" data-name="Path 32" d="M-5985.361-581.813a.874.874,0,0,0-.835,0,1.7,1.7,0,0,0-.682.8q-.59,1.222.328,1.665a3.219,3.219,0,0,0,1.026.257l-.314.65a2.874,2.874,0,0,1-1.095-.3,1.7,1.7,0,0,1-.987-1.072,2.277,2.277,0,0,1,.248-1.592,2.515,2.515,0,0,1,.689-.9,1.665,1.665,0,0,1,.914-.37,1.957,1.957,0,0,1,1.021.211,2.735,2.735,0,0,1,.946.773l-.554.509a4.721,4.721,0,0,0-.33-.369A1.365,1.365,0,0,0-5985.361-581.813Z" transform="translate(5991.38 585.318)" fill="#de9e11"/>
      <path id="Path_33" data-name="Path 33" d="M-5979.167-575.911l1.594-3.731.792.338-1.595,3.731Z" transform="translate(5985.535 583.306)" fill="#de9e11"/>
      <path id="Path_34" data-name="Path 34" d="M-5971.6-572.93l-2.184-.832,1.444-3.791,2.185.832-.252.658-1.379-.526-.318.832,1.284.489-.25.658-1.285-.489-.372.978,1.38.526Z" transform="translate(5981.964 581.92)" fill="#de9e11"/>
      <path id="Path_35" data-name="Path 35" d="M-5961.109-569.365l-1.043-.327-.766-3.457-.024-.007q-.193.792-.3,1.123l-.571,1.822-.733-.23,1.213-3.872,1.035.325.773,3.427.019.005c.132-.511.229-.871.294-1.079l.575-1.833.739.232Z" transform="translate(5975.834 579.77)" fill="#de9e11"/>
      <path id="Path_36" data-name="Path 36" d="M-5948.657-566.316l-.835-.206.8-3.244-1.069-.264.171-.7,2.974.736-.171.695-1.07-.264Z" transform="translate(5966.025 577.39)" fill="#de9e11"/>
      <path id="Path_37" data-name="Path 37" d="M-5941.247-564.272l.814-3.975.842.172-.814,3.975Z" transform="translate(5960.378 575.746)" fill="#de9e11"/>
      <path id="Path_38" data-name="Path 38" d="M-5934.02-562.531l-.141-1-1.462-.23-.44.908-.916-.144,2.047-3.8,1.038.164.789,4.248Zm-.232-1.744q-.2-1.361-.223-1.538c-.017-.119-.027-.212-.031-.28q-.146.337-.791,1.654Z" transform="translate(5957.546 574.785)" fill="#de9e11"/>
      <path id="Path_39" data-name="Path 39" d="M-5916.075-563.614a1.238,1.238,0,0,1-.479.971,1.747,1.747,0,0,1-1.186.264l-.367-.026-.1,1.44-.858-.061.286-4.047,1.293.091a1.724,1.724,0,0,1,1.1.4A1.16,1.16,0,0,1-5916.075-563.614Zm-1.983.505.282.02a.942.942,0,0,0,.6-.115.549.549,0,0,0,.229-.442.566.566,0,0,0-.134-.457.777.777,0,0,0-.506-.181l-.391-.027Z" transform="translate(5945.664 573.641)" fill="#de9e11"/>
      <path id="Path_40" data-name="Path 40" d="M-5904.64-562.477a2.2,2.2,0,0,1-.5,1.547,1.851,1.851,0,0,1-1.433.538,1.85,1.85,0,0,1-1.431-.545,2.209,2.209,0,0,1-.5-1.555,2.18,2.18,0,0,1,.5-1.546,1.875,1.875,0,0,1,1.438-.531,1.845,1.845,0,0,1,1.429.542A2.2,2.2,0,0,1-5904.64-562.477Zm-2.96-.008a1.693,1.693,0,0,0,.255,1.025.9.9,0,0,0,.771.346q1.03,0,1.033-1.365t-1.02-1.373a.91.91,0,0,0-.776.344A1.69,1.69,0,0,0-5907.6-562.485Z" transform="translate(5938.654 573.306)" fill="#de9e11"/>
      <path id="Path_41" data-name="Path 41" d="M-5893.865-560.892l-.858.055-.214-3.334-1.1.07-.045-.715,3.057-.2.046.714-1.1.071Z" transform="translate(5930.414 573.599)" fill="#de9e11"/>
      <path id="Path_42" data-name="Path 42" d="M-5882.645-561.99l-2.32.278-.483-4.028,2.32-.278.084.7-1.466.176.106.884,1.364-.164.084.7-1.365.164.125,1.039,1.466-.176Z" transform="translate(5923.359 574.267)" fill="#de9e11"/>
      <path id="Path_43" data-name="Path 43" d="M-5872.112-564.294l-1.075.2-2.3-2.689-.024,0c.134.526.224.9.267,1.131l.354,1.876-.755.142-.752-3.987,1.066-.2,2.295,2.659.019,0q-.187-.769-.248-1.091l-.357-1.887.761-.144Z" transform="translate(5917.358 575.769)" fill="#de9e11"/>
      <path id="Path_44" data-name="Path 44" d="M-5861.5-566.721l-.833.216-.84-3.234-1.066.277-.18-.693,2.966-.77.18.693-1.067.277Z" transform="translate(5909.407 577.523)" fill="#de9e11"/>
      <path id="Path_45" data-name="Path 45" d="M-5852.9-568.048l-1.188-3.879.823-.252,1.188,3.879Z" transform="translate(5902.553 578.355)" fill="#de9e11"/>
      <path id="Path_46" data-name="Path 46" d="M-5843.565-571.359l-.6-.809-1.392.5.049,1.008-.872.314-.031-4.318.99-.355,2.731,3.347Zm-1.041-1.418q-.828-1.1-.934-1.242c-.071-.1-.125-.173-.162-.231q.034.365.1,1.83Z" transform="translate(5897.462 580.24)" fill="#de9e11"/>
      <path id="Path_47" data-name="Path 47" d="M-5830.616-577.736l-2.129.963-1.673-3.7,2.129-.963.291.642-1.346.608.368.812,1.252-.566.29.642-1.251.566.432.953,1.344-.609Z" transform="translate(5889.504 584.493)" fill="#de9e11"/>
      <path id="Path_48" data-name="Path 48" d="M-5822.274-582.628a1.049,1.049,0,0,1,.042.951,1.722,1.722,0,0,1-.835.782,2.587,2.587,0,0,1-1.134.306l-.364-.712a4.765,4.765,0,0,0,.736-.087,2.064,2.064,0,0,0,.5-.17.737.737,0,0,0,.337-.294.37.37,0,0,0-.011-.355.359.359,0,0,0-.157-.158.731.731,0,0,0-.256-.071,4.927,4.927,0,0,0-.593-.005,2.5,2.5,0,0,1-.649-.045,1.247,1.247,0,0,1-.435-.2,1.063,1.063,0,0,1-.326-.394,1.049,1.049,0,0,1-.061-.919,1.518,1.518,0,0,1,.758-.734,2.386,2.386,0,0,1,.572-.208,4.1,4.1,0,0,1,.631-.086l.057.723a4.045,4.045,0,0,0-.562.079,1.711,1.711,0,0,0-.4.143.557.557,0,0,0-.282.272.379.379,0,0,0,.019.324.372.372,0,0,0,.138.153.571.571,0,0,0,.224.069,5.141,5.141,0,0,0,.615.005,2.163,2.163,0,0,1,.942.13A1.065,1.065,0,0,1-5822.274-582.628Z" transform="translate(5883.629 586.878)" fill="#de9e11"/>
      <path id="Path_49" data-name="Path 49" d="M-5815.368-586.459l-.747.427-1.659-2.9-.957.547-.355-.622,2.659-1.521.355.622-.956.547Z" transform="translate(5879.333 590.528)" fill="#de9e11"/>
    </g>
  </g>
</svg>
